<?xml version="1.0" encoding="UTF-8"?>
<svg width="32px" height="32px" viewBox="0 0 32 32" version="1.1" xmlns="http://www.w3.org/2000/svg" xmlns:xlink="http://www.w3.org/1999/xlink">
    <!-- Generator: Sketch 54.1 (76490) - https://sketchapp.com -->
    <title>背包icon</title>
    <desc>Created with Sketch.</desc>
    <defs>
        <linearGradient x1="50%" y1="0%" x2="50%" y2="100%" id="linearGradient-1">
            <stop stop-color="#AF4611" offset="0%"></stop>
            <stop stop-color="#DB611D" offset="48.9257812%"></stop>
            <stop stop-color="#EA7D00" offset="73.3669705%"></stop>
            <stop stop-color="#DF7E0B" offset="100%"></stop>
        </linearGradient>
        <rect id="path-2" x="0" y="0" width="24" height="22" rx="3"></rect>
        <filter x="-25.0%" y="-42.9%" width="150.0%" height="185.7%" filterUnits="objectBoundingBox" id="filter-4">
            <feGaussianBlur stdDeviation="2" in="SourceGraphic"></feGaussianBlur>
        </filter>
        <linearGradient x1="50%" y1="0%" x2="50%" y2="100%" id="linearGradient-5">
            <stop stop-color="#FDB665" offset="0%"></stop>
            <stop stop-color="#F38A2C" offset="19.9009487%"></stop>
            <stop stop-color="#FF9136" offset="68.7430246%"></stop>
            <stop stop-color="#F6BF75" offset="100%"></stop>
        </linearGradient>
        <linearGradient x1="50%" y1="0%" x2="50%" y2="100%" id="linearGradient-6">
            <stop stop-color="#8F4D15" offset="0%"></stop>
            <stop stop-color="#AB6C43" offset="56.4412435%"></stop>
            <stop stop-color="#732F09" offset="100%"></stop>
        </linearGradient>
        <linearGradient x1="50%" y1="0%" x2="50%" y2="100%" id="linearGradient-7">
            <stop stop-color="#FFFFFF" offset="0%"></stop>
            <stop stop-color="#373737" offset="100%"></stop>
        </linearGradient>
        <rect id="path-8" x="8" y="12" width="8" height="4" rx="1"></rect>
        <filter x="-3.1%" y="-6.2%" width="106.2%" height="112.5%" filterUnits="objectBoundingBox" id="filter-9">
            <feGaussianBlur stdDeviation="0.25" in="SourceAlpha" result="shadowBlurInner1"></feGaussianBlur>
            <feOffset dx="0" dy="0" in="shadowBlurInner1" result="shadowOffsetInner1"></feOffset>
            <feComposite in="shadowOffsetInner1" in2="SourceAlpha" operator="arithmetic" k2="-1" k3="1" result="shadowInnerInner1"></feComposite>
            <feColorMatrix values="0 0 0 0 0.662562274   0 0 0 0 0.662562274   0 0 0 0 0.662562274  0 0 0 0.5 0" type="matrix" in="shadowInnerInner1"></feColorMatrix>
        </filter>
        <linearGradient x1="50%" y1="0%" x2="50%" y2="100%" id="linearGradient-10">
            <stop stop-color="#8F4D15" offset="0%"></stop>
            <stop stop-color="#AB6C43" offset="56.4412435%"></stop>
            <stop stop-color="#732F09" offset="100%"></stop>
        </linearGradient>
    </defs>
    <g id="答题活动切图与标注" stroke="none" stroke-width="1" fill="none" fill-rule="evenodd">
        <g id="首页第一季切图综合" transform="translate(-327.000000, -206.000000)">
            <g id="背包icon" transform="translate(327.000000, 206.000000)">
                <g id="编组-12" transform="translate(4.000000, 4.000000)">
                    <g id="矩形复制-5" transform="translate(0.000000, 3.000000)">
                        <mask id="mask-3" fill="white">
                            <use xlink:href="#path-2"></use>
                        </mask>
                        <use id="蒙版" fill="url(#linearGradient-1)" xlink:href="#path-2"></use>
                        <path d="M3,-2 L21,-2 C22.6568542,-2 24,-0.656854249 24,1 L24,5 C24,8.86599325 20.8659932,12 17,12 L7,12 C3.13400675,12 4.73447626e-16,8.86599325 0,5 L0,1 C-2.02906125e-16,-0.656854249 1.34314575,-2 3,-2 Z" fill="#93400E" filter="url(#filter-4)" mask="url(#mask-3)"></path>
                    </g>
                    <path d="M3,0 L21,0 C22.6568542,-3.04359188e-16 24,1.34314575 24,3 L24,7 C24,10.8659932 20.8659932,14 17,14 L7,14 C3.13400675,14 4.73447626e-16,10.8659932 0,7 L0,3 C-2.02906125e-16,1.34314575 1.34314575,3.04359188e-16 3,0 Z" id="矩形复制-2" fill="url(#linearGradient-5)"></path>
                    <circle id="椭圆形" fill="#6F3F1B" cx="12" cy="21" r="2"></circle>
                    <circle id="椭圆形" fill="#FFFFFF" cx="12" cy="21" r="1"></circle>
                    <rect id="矩形" fill="url(#linearGradient-6)" x="10" y="9" width="4" height="8" rx="1"></rect>
                    <g id="矩形-2">
                        <use fill="black" fill-opacity="1" filter="url(#filter-9)" xlink:href="#path-8"></use>
                        <rect stroke="url(#linearGradient-7)" stroke-width="1" stroke-linejoin="square" x="8.5" y="12.5" width="7" height="3" rx="1"></rect>
                    </g>
                    <rect id="矩形复制-4" fill="url(#linearGradient-10)" x="10" y="13" width="4" height="5" rx="1"></rect>
                </g>
            </g>
        </g>
    </g>
</svg>