<?xml version="1.0" encoding="UTF-8"?>
<svg width="22px" height="22px" viewBox="0 0 22 22" version="1.1" xmlns="http://www.w3.org/2000/svg" xmlns:xlink="http://www.w3.org/1999/xlink">
    <!-- Generator: Sketch 54.1 (76490) - https://sketchapp.com -->
    <title>弹出按钮</title>
    <desc>Created with Sketch.</desc>
    <g id="答题活动切图与标注" stroke="none" stroke-width="1" fill="none" fill-rule="evenodd">
        <g id="首页第一季切图综合" transform="translate(-177.000000, -609.000000)">
            <g id="弹出按钮" transform="translate(177.000000, 609.000000)">
                <rect id="矩形" fill="#D8D8D8" opacity="0" x="0" y="0" width="22" height="22"></rect>
                <path d="M1.85142,2.10578955 L11,9.88201241 L20.14858,2.10578955 C20.4391518,1.85880571 20.7924844,2.05902567 20.9377703,2.55299335 C21.0830562,3.04696102 20.9652787,3.64762091 20.6747069,3.89460474 L11.2630634,11.8944295 C11.0974612,12.0351902 10.9025388,12.0351902 10.7369366,11.8944295 L1.32529314,3.89460474 C1.0347213,3.64762091 0.916943786,3.04696102 1.06222971,2.55299335 C1.20751563,2.05902567 1.56084816,1.85880571 1.85142,2.10578955 Z M1.85142,10.1057895 L11,17.8820124 L20.14858,10.1057895 C20.4391518,9.85880571 20.7924844,10.0590257 20.9377703,10.5529933 C21.0830562,11.046961 20.9652787,11.6476209 20.6747069,11.8946047 L11.2630634,19.8944295 C11.0974612,20.0351902 10.9025388,20.0351902 10.7369366,19.8944295 L1.32529314,11.8946047 C1.0347213,11.6476209 0.916943786,11.046961 1.06222971,10.5529933 C1.20751563,10.0590257 1.56084816,9.85880571 1.85142,10.1057895 Z" id="形状结合" fill="#FFFFFF" fill-rule="nonzero" transform="translate(11.000000, 11.000000) rotate(-180.000000) translate(-11.000000, -11.000000) "></path>
            </g>
        </g>
    </g>
</svg>