<?xml version="1.0" encoding="UTF-8"?>
<svg width="26px" height="16px" viewBox="0 0 26 16" version="1.1" xmlns="http://www.w3.org/2000/svg" xmlns:xlink="http://www.w3.org/1999/xlink">
    <!-- Generator: Sketch 54.1 (76490) - https://sketchapp.com -->
    <title>云、右</title>
    <desc>Created with Sketch.</desc>
    <defs>
        <radialGradient cx="50%" cy="15.1530565%" fx="50%" fy="15.1530565%" r="112.896733%" gradientTransform="translate(0.500000,0.151531),scale(0.615385,1.000000),scale(1.000000,0.728014),translate(-0.500000,-0.151531)" id="radialGradient-1">
            <stop stop-color="#EEEEEE" offset="0%"></stop>
            <stop stop-color="#96B7E0" offset="61.5163056%"></stop>
            <stop stop-color="#B899BC" offset="100%"></stop>
        </radialGradient>
    </defs>
    <g id="答题活动切图与标注" stroke="none" stroke-width="1" fill="none" fill-rule="evenodd">
        <g id="首页第一季切图综合" transform="translate(-252.000000, -330.000000)" fill="url(#radialGradient-1)">
            <g id="云、右" transform="translate(252.000000, 330.000000)">
                <path d="M8.04942782,14.1661531 C7.2489247,14.6530771 6.31008526,14.9333333 5.30612245,14.9333333 C2.37563194,14.9333333 0,12.5455187 0,9.6 C0,6.65448133 2.37563194,4.26666667 5.30612245,4.26666667 C5.60856811,4.26666667 5.90510364,4.29210067 6.19372746,4.34095681 C6.65640471,1.86964997 8.8150579,0 11.4081633,0 C13.2582897,0 14.8872572,0.951749784 15.8368826,2.39471651 C16.4846287,1.8962082 17.294634,1.6 18.1734694,1.6 C19.8236292,1.6 21.2311192,2.64432088 21.7774434,4.11129486 C24.188273,4.61409088 26,6.76105135 26,9.33333333 C26,12.278852 23.6243681,14.6666667 20.6938776,14.6666667 C19.9663012,14.6666667 19.2729275,14.5194771 18.6416221,14.2531066 C17.3151918,15.3303127 15.4560972,16 13.3979592,16 C11.2849921,16 9.38181481,15.2941563 8.04942782,14.1661531 L8.04942782,14.1661531 Z" id="路径复制"></path>
            </g>
        </g>
    </g>
</svg>