<?xml version="1.0" encoding="UTF-8"?>
<svg width="36px" height="22px" viewBox="0 0 36 22" version="1.1" xmlns="http://www.w3.org/2000/svg" xmlns:xlink="http://www.w3.org/1999/xlink">
    <!-- Generator: Sketch 54.1 (76490) - https://sketchapp.com -->
    <title>云、左</title>
    <desc>Created with Sketch.</desc>
    <defs>
        <radialGradient cx="50%" cy="15.1530565%" fx="50%" fy="15.1530565%" r="113.686221%" gradientTransform="translate(0.500000,0.151531),scale(0.611111,1.000000),scale(1.000000,0.728014),translate(-0.500000,-0.151531)" id="radialGradient-1">
            <stop stop-color="#EEEEEE" offset="0%"></stop>
            <stop stop-color="#96B7E0" offset="61.5163056%"></stop>
            <stop stop-color="#B899BC" offset="100%"></stop>
        </radialGradient>
    </defs>
    <g id="答题活动切图与标注" stroke="none" stroke-width="1" fill="none" fill-rule="evenodd">
        <g id="首页第一季切图综合" transform="translate(-95.000000, -275.000000)" fill="url(#radialGradient-1)">
            <g id="云、左" transform="translate(95.000000, 275.000000)">
                <path d="M11.1453616,19.4784605 C10.0369727,20.1479811 8.73704113,20.5333333 7.34693878,20.5333333 C3.28933653,20.5333333 0,17.2500882 0,13.2 C0,9.14991183 3.28933653,5.86666667 7.34693878,5.86666667 C7.76570969,5.86666667 8.17629735,5.90163842 8.57593033,5.96881561 C9.21656037,2.57076871 12.2054648,0 15.7959184,0 C18.3576319,0 20.6131253,1.30865595 21.9279912,3.2927352 C22.8248705,2.60728628 23.9464163,2.2 25.1632653,2.2 C27.4481019,2.2 29.3969343,3.63594122 30.1533832,5.65303043 C33.491455,6.34437496 36,9.2964456 36,12.8333333 C36,16.8834215 32.7106635,20.1666667 28.6530612,20.1666667 C27.6456479,20.1666667 26.6855919,19.964281 25.8114767,19.5980215 C23.9748809,21.07918 21.40075,22 18.5510204,22 C15.6253737,22 12.9902051,21.029465 11.1453616,19.4784605 L11.1453616,19.4784605 Z" id="路径"></path>
            </g>
        </g>
    </g>
</svg>