<?xml version="1.0" encoding="UTF-8"?>
<svg width="375px" height="320px" viewBox="0 0 375 320" version="1.1" xmlns="http://www.w3.org/2000/svg" xmlns:xlink="http://www.w3.org/1999/xlink">
    <!-- Generator: Sketch 54.1 (76490) - https://sketchapp.com -->
    <title>底部模块</title>
    <desc>Created with Sketch.</desc>
    <defs>
        <rect id="path-1" x="0" y="0" width="375" height="320"></rect>
        <linearGradient x1="50%" y1="13.5882054%" x2="50%" y2="100%" id="linearGradient-3">
            <stop stop-color="#6E55E4" offset="0%"></stop>
            <stop stop-color="#6A8DF5" offset="100%"></stop>
        </linearGradient>
        <linearGradient x1="50%" y1="9.30740235%" x2="50%" y2="100%" id="linearGradient-4">
            <stop stop-color="#5257EF" offset="0%"></stop>
            <stop stop-color="#6871F4" stop-opacity="0" offset="100%"></stop>
        </linearGradient>
        <linearGradient x1="50%" y1="9.98105885%" x2="50%" y2="100%" id="linearGradient-5">
            <stop stop-color="#6368FE" offset="0%"></stop>
            <stop stop-color="#656DF3" stop-opacity="0" offset="100%"></stop>
        </linearGradient>
        <path d="M0,47.1558205 L32,36.1558205 L32,12.0747448 C32,5.40604737 26.5939526,-1.22501984e-15 19.9252552,0 C18.5895698,2.45361434e-16 17.2631398,0.221616139 16,0.655820451 L16,0.655820451 C6.42727236,3.94644558 -1.23965067e-15,12.9522289 0,23.0747448 L0,47.1558205 Z" id="path-6"></path>
        <path d="M0,47.1558205 L32,36.1558205 L32,12.0747448 C32,5.40604737 26.5939526,-1.22501984e-15 19.9252552,0 C18.5895698,2.45361434e-16 17.2631398,0.221616139 16,0.655820451 L16,0.655820451 C6.42727236,3.94644558 -1.23965067e-15,12.9522289 0,23.0747448 L0,47.1558205 Z" id="path-8"></path>
        <path d="M0,47.1558205 L32,36.1558205 L32,12.0747448 C32,5.40604737 26.5939526,-1.22501984e-15 19.9252552,0 C18.5895698,2.45361434e-16 17.2631398,0.221616139 16,0.655820451 L16,0.655820451 C6.42727236,3.94644558 -1.23965067e-15,12.9522289 0,23.0747448 L0,47.1558205 Z" id="path-10"></path>
        <path d="M0,47.1558205 L32,36.1558205 L32,12.0747448 C32,5.40604737 26.5939526,-1.22501984e-15 19.9252552,0 C18.5895698,2.45361434e-16 17.2631398,0.221616139 16,0.655820451 L16,0.655820451 C6.42727236,3.94644558 -1.23965067e-15,12.9522289 0,23.0747448 L0,47.1558205 Z" id="path-12"></path>
    </defs>
    <g id="答题活动切图与标注" stroke="none" stroke-width="1" fill="none" fill-rule="evenodd">
        <g id="首页第一季切图综合" transform="translate(0.000000, -347.000000)">
            <g id="底部模块" transform="translate(0.000000, 347.000000)">
                <mask id="mask-2" fill="white">
                    <use xlink:href="#path-1"></use>
                </mask>
                <use id="蒙版" fill-opacity="0" fill="#D8D8D8" xlink:href="#path-1"></use>
                <g id="编组-5" mask="url(#mask-2)">
                    <g transform="translate(-34.000000, 25.000000)">
                        <polygon id="路径-3" fill="url(#linearGradient-3)" points="225 141 444 62 225 0 0 62"></polygon>
                        <polygon id="路径-10" fill="url(#linearGradient-4)" points="225 141 444 62 444 428 225 428"></polygon>
                        <polygon id="路径-12" fill="url(#linearGradient-5)" points="225 141 225 428 0 428 0 62"></polygon>
                        <g id="路径-19" stroke-width="1" fill="none" transform="translate(313.000000, 118.844180)">
                            <mask id="mask-7" fill="white">
                                <use xlink:href="#path-6"></use>
                            </mask>
                            <use id="蒙版" fill="#4F4ED7" xlink:href="#path-6"></use>
                            <polygon fill="#4B48CB" mask="url(#mask-7)" points="37 38.1558205 -10 22.1558205 -6 56.1558205"></polygon>
                        </g>
                        <g id="路径-19复制-2" stroke-width="1" fill="none" transform="translate(121.000000, 141.000000) scale(-1, 1) translate(-121.000000, -141.000000) translate(105.000000, 117.000000)">
                            <mask id="mask-9" fill="white">
                                <use xlink:href="#path-8"></use>
                            </mask>
                            <use id="蒙版" fill="#4F4ED7" xlink:href="#path-8"></use>
                            <polygon id="路径-19" fill="#4B48CB" mask="url(#mask-9)" points="37 38.1558205 -10 22.1558205 -6 56.1558205"></polygon>
                        </g>
                        <g id="路径-19复制-3" stroke-width="1" fill="none" transform="translate(72.000000, 124.000000) scale(-1, 1) translate(-72.000000, -124.000000) translate(56.000000, 100.000000)">
                            <mask id="mask-11" fill="white">
                                <use xlink:href="#path-10"></use>
                            </mask>
                            <use id="蒙版" fill="#4F4ED7" xlink:href="#path-10"></use>
                            <polygon id="路径-19" fill="#4B48CB" mask="url(#mask-11)" points="37 38.1558205 -10 22.1558205 -6 56.1558205"></polygon>
                        </g>
                        <g id="路径-19复制" stroke-width="1" fill="none" transform="translate(361.000000, 102.000000)">
                            <mask id="mask-13" fill="white">
                                <use xlink:href="#path-12"></use>
                            </mask>
                            <use id="蒙版" fill="#4F4ED7" xlink:href="#path-12"></use>
                            <polygon id="路径-19" fill="#4B48CB" mask="url(#mask-13)" points="37 38.1558205 -10 22.1558205 -6 56.1558205"></polygon>
                        </g>
                    </g>
                </g>
            </g>
        </g>
    </g>
</svg>