<?xml version="1.0" encoding="UTF-8"?>
<svg width="32px" height="32px" viewBox="0 0 32 32" version="1.1" xmlns="http://www.w3.org/2000/svg" xmlns:xlink="http://www.w3.org/1999/xlink">
    <!-- Generator: Sketch 54.1 (76490) - https://sketchapp.com -->
    <title>红包icon</title>
    <desc>Created with Sketch.</desc>
    <defs>
        <linearGradient x1="50%" y1="32.8595843%" x2="50%" y2="100%" id="linearGradient-1">
            <stop stop-color="#C82727" offset="0%"></stop>
            <stop stop-color="#EC3535" offset="44.9962339%"></stop>
            <stop stop-color="#FF6363" offset="100%"></stop>
        </linearGradient>
        <rect id="path-2" x="0" y="0" width="22" height="28" rx="2.625"></rect>
        <filter x="-6.8%" y="-5.4%" width="113.6%" height="110.7%" filterUnits="objectBoundingBox" id="filter-4">
            <feGaussianBlur stdDeviation="1.5" in="SourceAlpha" result="shadowBlurInner1"></feGaussianBlur>
            <feOffset dx="0" dy="0" in="shadowBlurInner1" result="shadowOffsetInner1"></feOffset>
            <feComposite in="shadowOffsetInner1" in2="SourceAlpha" operator="arithmetic" k2="-1" k3="1" result="shadowInnerInner1"></feComposite>
            <feColorMatrix values="0 0 0 0 1   0 0 0 0 0.821698616   0 0 0 0 0.17730564  0 0 0 0.5 0" type="matrix" in="shadowInnerInner1"></feColorMatrix>
        </filter>
        <linearGradient x1="50%" y1="0%" x2="50%" y2="100%" id="linearGradient-5">
            <stop stop-color="#FF7070" offset="0%"></stop>
            <stop stop-color="#EC3434" offset="15.629069%"></stop>
            <stop stop-color="#FF3D3D" offset="100%"></stop>
        </linearGradient>
        <path d="M2.625,0 L19.375,0 C20.8247475,-2.66314289e-16 22,1.17525253 22,2.625 L22,7 C22,9.76142375 19.7614237,12 17,12 L5,12 C2.23857625,12 3.38176876e-16,9.76142375 0,7 L0,2.625 C-1.7754286e-16,1.17525253 1.17525253,2.66314289e-16 2.625,0 Z" id="path-6"></path>
        <filter x="-6.8%" y="-12.5%" width="113.6%" height="125.0%" filterUnits="objectBoundingBox" id="filter-8">
            <feGaussianBlur stdDeviation="1.5" in="SourceAlpha" result="shadowBlurInner1"></feGaussianBlur>
            <feOffset dx="0" dy="0" in="shadowBlurInner1" result="shadowOffsetInner1"></feOffset>
            <feComposite in="shadowOffsetInner1" in2="SourceAlpha" operator="arithmetic" k2="-1" k3="1" result="shadowInnerInner1"></feComposite>
            <feColorMatrix values="0 0 0 0 1   0 0 0 0 0.821698616   0 0 0 0 0.17730564  0 0 0 0.5 0" type="matrix" in="shadowInnerInner1"></feColorMatrix>
        </filter>
    </defs>
    <g id="答题活动切图与标注" stroke="none" stroke-width="1" fill="none" fill-rule="evenodd">
        <g id="首页第一季切图综合" transform="translate(-327.000000, -265.000000)">
            <g id="红包icon" transform="translate(327.000000, 265.000000)">
                <rect id="矩形" fill-opacity="0" fill="#D8D8D8" x="0" y="0" width="32" height="32"></rect>
                <g id="路径-20" transform="translate(5.000000, 2.000000)">
                    <mask id="mask-3" fill="white">
                        <use xlink:href="#path-2"></use>
                    </mask>
                    <g id="蒙版">
                        <use fill="url(#linearGradient-1)" fill-rule="evenodd" xlink:href="#path-2"></use>
                        <use fill="black" fill-opacity="1" filter="url(#filter-4)" xlink:href="#path-2"></use>
                    </g>
                    <mask id="mask-7" fill="white">
                        <use xlink:href="#path-6"></use>
                    </mask>
                    <g id="蒙版">
                        <use fill="url(#linearGradient-5)" fill-rule="evenodd" xlink:href="#path-6"></use>
                        <use fill="black" fill-opacity="1" filter="url(#filter-8)" xlink:href="#path-6"></use>
                    </g>
                    <circle id="椭圆形-2" fill="#FFD03A" cx="11" cy="12" r="4"></circle>
                    <polygon id="¥" fill="#FFFFFF" fill-rule="nonzero" points="9.30373533 9.62675 10.1122353 9.62675 11.0738603 11.507125 12.0354853 9.62675 12.8439853 9.62675 11.6496103 11.776625 12.4642353 11.776625 12.4642353 12.156375 11.4352353 12.156375 11.4291103 12.1625 11.4291103 12.68925 12.4642353 12.68925 12.4642353 13.069 11.4291103 13.069 11.4291103 14 10.7186103 14 10.7186103 13.069 9.68961033 13.069 9.68961033 12.68925 10.7186103 12.68925 10.7186103 12.1625 10.7124853 12.156375 9.68961033 12.156375 9.68961033 11.776625 10.4981103 11.776625"></polygon>
                </g>
            </g>
        </g>
    </g>
</svg>