<?xml version="1.0" encoding="UTF-8"?>
<svg width="32px" height="32px" viewBox="0 0 32 32" version="1.1" xmlns="http://www.w3.org/2000/svg" xmlns:xlink="http://www.w3.org/1999/xlink">
    <!-- Generator: Sketch 54.1 (76490) - https://sketchapp.com -->
    <title>排行榜icon</title>
    <desc>Created with Sketch.</desc>
    <defs>
        <radialGradient cx="22.5731576%" cy="16.3587496%" fx="22.5731576%" fy="16.3587496%" r="121.584287%" gradientTransform="translate(0.225732,0.163587),scale(0.833333,1.000000),rotate(34.984145),translate(-0.225732,-0.163587)" id="radialGradient-1">
            <stop stop-color="#FFD756" offset="0%"></stop>
            <stop stop-color="#FCA107" offset="63.8806706%"></stop>
            <stop stop-color="#F9C943" offset="100%"></stop>
        </radialGradient>
        <linearGradient x1="50%" y1="0%" x2="50%" y2="110.736131%" id="linearGradient-2">
            <stop stop-color="#FCA107" offset="0%"></stop>
            <stop stop-color="#FFD548" offset="100%"></stop>
        </linearGradient>
        <radialGradient cx="22.5731576%" cy="16.3587496%" fx="22.5731576%" fy="16.3587496%" r="133.746211%" gradientTransform="translate(0.225732,0.163587),scale(0.727273,1.000000),rotate(31.413680),translate(-0.225732,-0.163587)" id="radialGradient-3">
            <stop stop-color="#FFCA22" offset="0%"></stop>
            <stop stop-color="#FCA107" offset="63.8806706%"></stop>
            <stop stop-color="#F9C943" offset="100%"></stop>
        </radialGradient>
        <linearGradient x1="0%" y1="50%" x2="100%" y2="50%" id="linearGradient-4">
            <stop stop-color="#FFD94E" offset="0%"></stop>
            <stop stop-color="#F89C00" offset="72.9848262%"></stop>
            <stop stop-color="#FDA208" offset="100%"></stop>
        </linearGradient>
        <radialGradient cx="22.5731576%" cy="16.3587496%" fx="22.5731576%" fy="16.3587496%" r="158.464438%" gradientTransform="translate(0.225732,0.163587),scale(0.583333,1.000000),rotate(26.098230),translate(-0.225732,-0.163587)" id="radialGradient-5">
            <stop stop-color="#FFD756" offset="0%"></stop>
            <stop stop-color="#FCA107" offset="63.8806706%"></stop>
            <stop stop-color="#F9C943" offset="100%"></stop>
        </radialGradient>
        <radialGradient cx="22.5731576%" cy="16.3587496%" fx="22.5731576%" fy="16.3587496%" r="339.289583%" gradientTransform="translate(0.225732,0.163587),scale(0.250000,1.000000),rotate(11.856408),translate(-0.225732,-0.163587)" id="radialGradient-6">
            <stop stop-color="#FFD756" offset="0%"></stop>
            <stop stop-color="#FCA107" offset="63.8806706%"></stop>
            <stop stop-color="#F9C943" offset="100%"></stop>
        </radialGradient>
    </defs>
    <g id="答题活动切图与标注" stroke="none" stroke-width="1" fill="none" fill-rule="evenodd">
        <g id="首页第一季切图综合" transform="translate(-327.000000, -88.000000)">
            <g id="排行榜icon" transform="translate(327.000000, 88.000000)">
                <rect id="矩形" fill-opacity="0" fill="#FFFFFF" x="0" y="0" width="32" height="32"></rect>
                <g id="排行榜" transform="translate(1.461488, 2.000000)">
                    <ellipse id="椭圆形" fill="url(#radialGradient-1)" cx="14.5385124" cy="17.5" rx="3" ry="2.5"></ellipse>
                    <path d="M4.89889766,3.25 L24.1008694,3.25 C24.8083059,3.25 25.4461604,3.67593115 25.7172667,4.3293589 L28.6215573,11.3293589 C28.9919422,12.2220705 28.5685127,13.2460125 27.6758011,13.6163974 C27.4632147,13.7045992 27.2353176,13.75 27.0051599,13.75 L14.4998835,13.75 L1.99460707,13.75 C1.02810876,13.75 0.244607069,12.9664983 0.244607069,12 C0.244607069,11.7698424 0.290007878,11.5419453 0.378209683,11.3293589 L3.28250028,4.3293589 C3.55360657,3.67593115 4.19146113,3.25 4.89889766,3.25 Z M4.89889766,4.75 C4.7978353,4.75 4.70671322,4.81084731 4.66798375,4.90419413 L1.76369316,11.9041941 C1.7510929,11.9345636 1.74460707,11.9671203 1.74460707,12 C1.74460707,12.1380712 1.85653588,12.25 1.99460707,12.25 L27.0051599,12.25 C27.0380396,12.25 27.0705963,12.2435142 27.1009658,12.2309139 C27.2284961,12.1780018 27.288986,12.0317244 27.2360739,11.9041941 L24.3317833,4.90419413 C24.2930538,4.81084731 24.2019317,4.75 24.1008694,4.75 L4.89889766,4.75 Z" id="矩形复制-8" fill="url(#linearGradient-2)" fill-rule="nonzero" transform="translate(14.500112, 8.500000) scale(1, -1) translate(-14.500112, -8.500000) "></path>
                    <path d="M4.57770436,1 L24.4993217,1.00000169 C25.0270597,1.00000169 25.4639572,1.41009977 25.4973198,1.93678213 C25.5247815,2.37031112 25.5385124,2.72471708 25.5385124,3 C25.5385124,10.7319865 20.6136447,17 14.5385124,17 C8.46338016,17 3.5385124,10.7319865 3.5385124,3 C3.5385124,2.72471853 3.55224314,2.37031487 3.5797046,1.93678901 L3.57969784,1.93678858 C3.61306054,1.41010167 4.04996183,1 4.57770436,1 Z" id="路径" fill="url(#radialGradient-3)"></path>
                    <polygon id="路径-2" fill="#FFFFFF" points="14.4670224 4 12.5385124 8.41329004 14.4670224 8.41329004 14.4670224 12 16.094068 7.00636036 14.4670224 7.00636036"></polygon>
                    <rect id="矩形" fill="url(#linearGradient-4)" x="2.5385124" y="0" width="24" height="2" rx="1"></rect>
                    <polygon id="矩形" fill="url(#radialGradient-5)" points="13.0385124 19.5 16.0385124 19.5 17.5385124 23 11.5385124 23"></polygon>
                    <path d="M7.21554537,22 L21.8614794,22 C22.270384,22 22.6380928,22.2489509 22.7899561,22.6286093 L23.9899561,25.6286093 C24.1950695,26.1413928 23.9456536,26.7233633 23.4328701,26.9284767 C23.3147498,26.9757248 23.1886989,27 23.0614794,27 L14.5385124,27 L6.01554537,27 C5.46326062,27 5.01554537,26.5522847 5.01554537,26 C5.01554537,25.8727806 5.03982056,25.7467296 5.08706867,25.6286093 L6.28706867,22.6286093 C6.43893203,22.2489509 6.80664078,22 7.21554537,22 Z" id="矩形" fill="url(#radialGradient-6)"></path>
                </g>
            </g>
        </g>
    </g>
</svg>