<?xml version="1.0" encoding="UTF-8"?>
<svg width="343px" height="414px" viewBox="0 0 343 414" version="1.1" xmlns="http://www.w3.org/2000/svg" xmlns:xlink="http://www.w3.org/1999/xlink">
    <!-- Generator: Sketch 54.1 (76490) - https://sketchapp.com -->
    <title>赛季攻略</title>
    <desc>Created with Sketch.</desc>
    <defs>
        <linearGradient x1="0%" y1="50%" x2="100%" y2="50%" id="linearGradient-1">
            <stop stop-color="#FF6B55" offset="0%"></stop>
            <stop stop-color="#FFFFFF" offset="100%"></stop>
        </linearGradient>
        <linearGradient x1="0%" y1="50%" x2="99.4140625%" y2="50%" id="linearGradient-2">
            <stop stop-color="#FFFFFF" offset="0%"></stop>
            <stop stop-color="#FF6C56" offset="100%"></stop>
        </linearGradient>
    </defs>
    <g id="答题活动切图与标注" stroke="none" stroke-width="1" fill="none" fill-rule="evenodd">
        <g id="首页切图集合" transform="translate(-2529.000000, -58.000000)">
            <g id="赛季攻略" transform="translate(2529.000000, 58.000000)">
                <path d="M8,0 L335,0 C339.418278,-8.11624501e-16 343,3.581722 343,8 L343,414 L0,414 L0,8 C-5.41083001e-16,3.581722 3.581722,8.11624501e-16 8,0 Z" id="矩形" fill="#FFFFFF"></path>
                <text id="本赛季时间7月1日-7日，7月7日为成绩" font-family="PingFangSC-Regular, PingFang SC" font-size="12" font-weight="normal" letter-spacing="-0.2894118" fill="#3A3D4F">
                    <tspan x="24" y="67">本赛季时间7月1日-7日，7月7日为成绩统计期，请在6日</tspan>
                    <tspan x="24" y="84">前冲关到宗师段位，在宗师段位每过一关都会有一定几率</tspan>
                    <tspan x="24" y="101">掉落红包碎片，集齐四个红包碎片可按照活动规则兑换红</tspan>
                    <tspan x="24" y="118">包。</tspan>
                    <tspan x="24" y="135"></tspan>
                    <tspan x="24" y="152">在开始答题的过程中，有效的使用特权卡可以更加顺利的</tspan>
                    <tspan x="24" y="169">闯关，</tspan>
                    <tspan x="24" y="186"></tspan>
                    <tspan x="24" y="203">特权卡介绍：</tspan>
                    <tspan x="24" y="220">帮帮卡——自动选择一个正确选项，每关最多使用2次 </tspan>
                    <tspan x="24" y="237">排除卡——排除一道错误选项，每关最多使用3次</tspan>
                    <tspan x="24" y="254">能量卡——每张增加5个能量，使用次数不限</tspan>
                    <tspan x="24" y="271"></tspan>
                    <tspan x="24" y="288">如何获得特权卡？</tspan>
                    <tspan x="24" y="305">完成任务宝箱中的任务，可以获得特权卡奖励</tspan>
                    <tspan x="24" y="322">关注民生保险微管家公众号，有机会获得主题宝箱（内含</tspan>
                    <tspan x="24" y="339">特权卡）</tspan>
                    <tspan x="24" y="356"></tspan>
                    <tspan x="24" y="373">小提示：每关要在60秒内答完题目，加油！</tspan>
                </text>
                <g id="编组-4" transform="translate(47.000000, 14.000000)">
                    <text id="赛季攻略" font-family="PingFangSC-Medium, PingFang SC" font-size="16" font-weight="400" letter-spacing="-0.3858824" fill="#FF5054">
                        <tspan x="93.2717648" y="17">赛季攻略</tspan>
                    </text>
                    <rect id="矩形" fill="url(#linearGradient-1)" x="169" y="10" width="79" height="2" rx="1"></rect>
                    <rect id="矩形复制-3" fill="url(#linearGradient-2)" x="0" y="10" width="79" height="2" rx="1"></rect>
                </g>
            </g>
        </g>
    </g>
</svg>