<?xml version="1.0" encoding="UTF-8"?>
<svg width="32px" height="32px" viewBox="0 0 32 32" version="1.1" xmlns="http://www.w3.org/2000/svg" xmlns:xlink="http://www.w3.org/1999/xlink">
    <!-- Generator: Sketch 54.1 (76490) - https://sketchapp.com -->
    <title>任务宝箱icon</title>
    <desc>Created with Sketch.</desc>
    <defs>
        <linearGradient x1="50%" y1="0%" x2="50%" y2="100%" id="linearGradient-1">
            <stop stop-color="#65F0FD" offset="0%"></stop>
            <stop stop-color="#129D7C" offset="19.9009487%"></stop>
            <stop stop-color="#1AC887" offset="68.7430246%"></stop>
            <stop stop-color="#24E892" offset="100%"></stop>
        </linearGradient>
        <path d="M3,3 L21,3 C21.5522847,3 22,3.44771525 22,4 L22,18 L2,18 L2,4 C2,3.44771525 2.44771525,3 3,3 Z" id="path-2"></path>
        <filter x="-10.0%" y="-13.3%" width="120.0%" height="126.7%" filterUnits="objectBoundingBox" id="filter-3">
            <feGaussianBlur stdDeviation="1.5" in="SourceAlpha" result="shadowBlurInner1"></feGaussianBlur>
            <feOffset dx="0" dy="1" in="shadowBlurInner1" result="shadowOffsetInner1"></feOffset>
            <feComposite in="shadowOffsetInner1" in2="SourceAlpha" operator="arithmetic" k2="-1" k3="1" result="shadowInnerInner1"></feComposite>
            <feColorMatrix values="0 0 0 0 0   0 0 0 0 0   0 0 0 0 0  0 0 0 0.5 0" type="matrix" in="shadowInnerInner1"></feColorMatrix>
        </filter>
        <linearGradient x1="50%" y1="0%" x2="50%" y2="100%" id="linearGradient-4">
            <stop stop-color="#FFFFFF" offset="0%"></stop>
            <stop stop-color="#FDF7E4" offset="100%"></stop>
        </linearGradient>
        <linearGradient x1="50%" y1="0%" x2="50%" y2="100%" id="linearGradient-5">
            <stop stop-color="#4BD697" offset="0%"></stop>
            <stop stop-color="#139A7A" offset="19.9009487%"></stop>
            <stop stop-color="#0E9E69" offset="68.7430246%"></stop>
            <stop stop-color="#1FA068" offset="100%"></stop>
        </linearGradient>
    </defs>
    <g id="答题活动切图与标注" stroke="none" stroke-width="1" fill="none" fill-rule="evenodd">
        <g id="首页第一季切图综合" transform="translate(-327.000000, -147.000000)">
            <g id="任务宝箱icon" transform="translate(327.000000, 147.000000)">
                <rect id="矩形" fill-opacity="0" fill="#D8D8D8" x="0" y="0" width="32" height="32"></rect>
                <g id="编组-9" transform="translate(4.000000, 2.000000)">
                    <path d="M3,2 L21,2 C22.1045695,2 23,2.8954305 23,4 L23,18 L1,18 L1,4 C1,2.8954305 1.8954305,2 3,2 Z" id="矩形复制" fill="url(#linearGradient-1)"></path>
                    <g id="矩形复制">
                        <use fill="#23835C" fill-rule="evenodd" xlink:href="#path-2"></use>
                        <use fill="black" fill-opacity="1" filter="url(#filter-3)" xlink:href="#path-2"></use>
                    </g>
                    <path d="M5,0 L19,0 C19.5522847,-1.01453063e-16 20,0.44771525 20,1 L20,17 L4,17 L4,1 C4,0.44771525 4.44771525,1.01453063e-16 5,0 Z" id="矩形" fill="url(#linearGradient-4)"></path>
                    <rect id="矩形" fill="#85B1B4" x="6" y="3.5" width="12" height="1" rx="0.5"></rect>
                    <rect id="矩形复制-6" fill="#85B1B4" x="6" y="6.5" width="12" height="1" rx="0.5"></rect>
                    <rect id="矩形复制-7" fill="#85B1B4" x="6" y="9.5" width="12" height="1" rx="0.5"></rect>
                    <path d="M0,13 L24,13 L24,25 C24,26.6568542 22.6568542,28 21,28 L3,28 C1.34314575,28 2.02906125e-16,26.6568542 0,25 L0,13 Z" id="矩形" fill="url(#linearGradient-5)"></path>
                    <path d="M11,19.7324356 C10.4021986,19.3866262 10,18.7402824 10,18 C10,16.8954305 10.8954305,16 12,16 C13.1045695,16 14,16.8954305 14,18 C14,18.7402824 13.5978014,19.3866262 13,19.7324356 L13,22 C13,22.5522847 12.5522847,23 12,23 C11.4477153,23 11,22.5522847 11,22 L11,19.7324356 Z" id="形状结合" fill="#7F3D0C"></path>
                    <circle id="椭圆形" fill="#FFFFFF" cx="12" cy="18" r="1"></circle>
                </g>
            </g>
        </g>
    </g>
</svg>